External Loads File
version=1
nRows=38
nColumns=13
Range=5.000000e-03-10 seconds
endheader
time 	forceRightX 	forceRightY 	forceRightZ 	pointRightX 	pointRightY 	pointRightZ 	forceLeftX 	forceLeftY 	forceLeftZ 	pointLeftX 	pointLeftY 	pointLeftZ 		
7.505000 39.737264 -50.666981 -0.000000 0.128630 0.200548 -0.157197 -45.889715 83.912249 -0.000000 0.366633 0.443053 -0.403076
7.510000 15.268766 -86.211236 -0.000000 0.123502 0.208255 -0.157155 -48.422934 102.510069 -0.000000 0.370837 0.434464 -0.403536
7.515000 -6.916377 -114.311933 -0.000000 0.118676 0.216405 -0.156965 -52.831501 128.312294 -0.000000 0.374640 0.425413 -0.403973
7.520000 -26.227014 -134.486611 -0.000000 0.114334 0.224638 -0.156785 -58.750893 162.073753 -0.000000 0.377925 0.415746 -0.404717
7.525000 -42.212742 -146.563404 -0.000000 0.110361 0.233286 -0.156801 -65.231676 203.493539 -0.000000 0.380803 0.405717 -0.405317
7.530000 -54.379075 -150.798003 -0.000000 0.105955 0.242133 -0.157823 -71.211489 250.621988 -0.000000 0.383419 0.395614 -0.405277
7.535000 -61.804940 -148.177386 -0.000000 0.102935 0.251141 -0.157914 -76.869625 300.040447 -0.000000 0.385575 0.385438 -0.404744
7.540000 -64.819328 -139.761721 -0.000000 0.100310 0.260527 -0.158152 -81.070060 348.858177 -0.000000 0.387357 0.374725 -0.404483
7.545000 -63.224236 -127.215038 -0.000000 0.098223 0.269922 -0.158416 -84.425977 394.719794 -0.000000 0.388637 0.363666 -0.404545
7.550000 -57.579673 -112.116465 -0.000000 0.096907 0.279835 -0.158419 -86.555136 436.548577 -0.000000 0.389654 0.352401 -0.404578
7.555000 -48.454160 -96.095921 -0.000000 0.095763 0.289987 -0.158433 -87.843069 473.866754 -0.000000 0.390294 0.341152 -0.404413
7.560000 -36.814332 -80.444391 -0.000000 0.095258 0.300291 -0.158412 -88.142278 506.799010 -0.000000 0.390455 0.329749 -0.404588
7.565000 -23.758221 -66.101052 -0.000000 0.095360 0.310789 -0.158490 -87.296269 535.740027 -0.000000 0.390082 0.318394 -0.404809
7.570000 -10.370257 -53.652258 -0.000000 0.096178 0.321359 -0.158641 -85.361774 561.208943 -0.000000 0.389308 0.307213 -0.404636
7.575000 2.365970 -43.373638 -0.000000 0.097686 0.331933 -0.158872 -82.374957 583.831877 -0.000000 0.388023 0.296301 -0.404759
7.580000 13.652472 -35.339638 -0.000000 0.099692 0.342433 -0.159152 -78.271209 604.270477 -0.000000 0.386430 0.285569 -0.404286
7.585000 22.899862 -29.535857 -0.000000 0.102444 0.352912 -0.159407 -72.815452 623.111490 -0.000000 0.384250 0.275072 -0.403994
7.590000 29.727407 -25.884339 -0.000000 0.105754 0.363174 -0.159605 -66.468984 640.671113 -0.000000 0.381494 0.264914 -0.403654
7.595000 33.795868 -24.346151 -0.000000 0.109764 0.373323 -0.159676 -58.113455 657.240521 -0.000000 0.378180 0.254845 -0.403395
7.600000 34.901627 -24.767531 -0.000000 0.114417 0.383269 -0.159964 -47.835075 672.827965 -0.000000 0.374325 0.244975 -0.403085
7.605000 32.948577 -26.853908 -0.000000 0.119716 0.392981 -0.160069 -35.718219 687.364671 -0.000000 0.369862 0.235501 -0.402813
7.610000 28.017218 -30.157813 -0.000000 0.125570 0.402177 -0.160228 -22.172911 700.708670 -0.000000 0.364868 0.226371 -0.402467
7.615000 20.335869 -34.223149 -0.000000 0.132006 0.411115 -0.160378 -6.598578 712.712105 -0.000000 0.359377 0.217611 -0.402155
7.620000 10.336996 -38.613740 -0.000000 0.139042 0.419644 -0.160558 10.864020 723.168049 -0.000000 0.353334 0.209262 -0.401807
7.625000 -1.415923 -43.026413 -0.000000 0.146552 0.427687 -0.160691 29.750908 731.923817 -0.000000 0.346721 0.201436 -0.401520
7.630000 -14.383909 -47.286895 -0.000000 0.154510 0.435334 -0.160917 50.249659 738.875733 -0.000000 0.339676 0.193875 -0.401294
7.635000 -28.078539 -51.241318 -0.000000 0.163081 0.442623 -0.161080 72.346860 743.910701 -0.000000 0.332141 0.186744 -0.401152
7.640000 -41.956860 -54.779052 -0.000000 0.171834 0.449410 -0.161221 94.272660 747.096634 -0.000000 0.324206 0.180248 -0.400991
7.645000 -55.643225 -57.711224 -0.000000 0.180919 0.455333 -0.161450 115.846698 748.499609 -0.000000 0.315884 0.174217 -0.400879
7.650000 -68.814235 -59.763080 -0.000000 0.189927 0.461371 -0.161908 136.928643 748.290447 -0.000000 0.307202 0.168641 -0.400819
7.655000 -81.100864 -60.638152 -0.000000 0.199376 0.466132 -0.162276 156.927111 746.719732 -0.000000 0.298255 0.163711 -0.400833
7.660000 -92.365339 -59.616510 -0.000000 0.209935 0.470671 -0.161877 178.635611 743.085762 -0.000000 0.289067 0.159245 -0.400936
7.665000 -101.848817 -56.860050 -0.000000 0.219552 0.474711 -0.162413 197.401814 738.071109 -0.000000 0.279626 0.155313 -0.401082
7.670000 -109.396829 -51.777652 -0.000000 0.229469 0.478097 -0.162652 215.586734 730.525575 -0.000000 0.270073 0.152183 -0.401233
7.675000 -114.766009 -44.001154 -0.000000 0.239918 0.480702 -0.162609 233.834156 719.374051 -0.000000 0.260400 0.149579 -0.401340
7.680000 -117.593197 -33.742760 -0.000000 0.249860 0.482744 -0.162982 249.798614 704.382223 -0.000000 0.250586 0.147698 -0.401422
7.685000 -117.807517 -20.788329 -0.000000 0.260101 0.484086 -0.163099 264.822945 684.076461 -0.000000 0.240677 0.146618 -0.401411
7.690000 -115.241207 -5.646055 -0.000000 0.270122 0.484884 -0.163177 277.014194 658.119401 -0.000000 0.230841 0.146290 -0.401359
